<svg xmlns="http://www.w3.org/2000/svg" xmlns:svg="http://www.w3.org/2000/svg" id="svg2" width="32" height="32" version="1.1"><metadata id="metadata7"/><g id="layer1" transform="translate(0,-1020.3622)"><g id="g3778" transform="matrix(0.48527699,0,0,0.48527699,-0.24455194,539.74797)"><path id="path2985" fill="none" stroke="#000" stroke-dasharray="none" stroke-miterlimit="4" stroke-width="6.283" d="m 242.85715,150.93361 c 0,29.19219 -40.29438,52.85714 -90,52.85714 -49.70563,0 -90.000003,-23.66495 -90.000003,-52.85714 0,-29.1922 40.294373,-52.857144 90.000003,-52.857144 49.70562,0 90,23.664944 90,52.857144 z" color="#000" display="inline" enable-background="accumulate" opacity=".9" overflow="visible" transform="matrix(0.26238848,-0.13618682,0.15863047,0.30381894,-29.855772,993.985)" visibility="visible" style="marker:none"/><path id="path2987" fill="none" stroke="#000" stroke-dasharray="none" stroke-dashoffset="0" stroke-linecap="butt" stroke-linejoin="miter" stroke-miterlimit="4" stroke-opacity="1" stroke-width="6.76" d="m 134.28571,192.36218 c 0,6.31183 -5.11674,11.42857 -11.42857,11.42857 -6.31183,0 -11.42857,-5.11674 -11.42857,-11.42857 0,-6.31182 5.11674,-11.42857 11.42857,-11.42857 6.31183,0 11.42857,5.11675 11.42857,11.42857 z" color="#000" display="inline" enable-background="accumulate" opacity=".9" overflow="visible" transform="matrix(0.26644201,0.12864164,-0.12864164,0.26644201,14.922906,972.05149)" visibility="visible" style="marker:none"/><path id="path2989" fill="none" stroke="#000" stroke-dasharray="none" stroke-linecap="butt" stroke-linejoin="miter" stroke-miterlimit="4" stroke-opacity="1" stroke-width="2" d="m 22.771797,1039.6581 c 0.815331,4.1901 -3.930795,10.7356 -3.930795,10.7356"/></g></g></svg>